<svg width="1em" height="1em" viewBox="0 0 20 20" fill="none" xmlns="http://www.w3.org/2000/svg">
<g clip-path="url(#clip0_10207_8356)">
<path d="M14.4926 6.34469C14.7279 6.10941 14.7279 5.72793 14.4926 5.49264C14.2574 5.25735 13.8759 5.25735 13.6406 5.49264L10 9.13323L6.35941 5.49264C6.12412 5.25735 5.74265 5.25735 5.50736 5.49264C5.27207 5.72793 5.27207 6.10941 5.50736 6.34469L9.14795 9.98528L5.50736 13.6259C5.27207 13.8612 5.27207 14.2426 5.50736 14.4779C5.74265 14.7132 6.12413 14.7132 6.35941 14.4779L10 10.8373L13.6406 14.4779C13.8759 14.7132 14.2574 14.7132 14.4926 14.4779C14.7279 14.2426 14.7279 13.8612 14.4926 13.6259L10.8521 9.98528L14.4926 6.34469Z" fill="currentColor"/>
<path fill-rule="evenodd" clip-rule="evenodd" d="M5 0C2.23858 0 0 2.23858 0 5V15C0 17.7614 2.23858 20 5 20H15C17.7614 20 20 17.7614 20 15V5C20 2.23858 17.7614 0 15 0H5ZM15 1H5C2.79086 1 1 2.79086 1 5V15C1 17.2091 2.79086 19 5 19H15C17.2091 19 19 17.2091 19 15V5C19 2.79086 17.2091 1 15 1Z" fill="currentColor"/>
</g>
<defs>
<clipPath id="clip0_10207_8356">
<rect width="20" height="20" fill="currentColor"/>
</clipPath>
</defs>
</svg> 